# xmcd
#
# Track frame offsets:
#	150
#	19138
#	57688
#	75238
#	90717
#	111093
#	132815
#	145025
#	171119
#	187461
#	206925
#	222363
#	237634
#	249701
#	264933
#	278573
#	293700
#	308723
#	328839
#
# Disc length: 4607 seconds
#
# Revision: 1
# Processed by: cddbd v1.5.2PL0 Copyright (c) Steve Scherf et al.
# Submitted via: EasyCDDAExtractor 11.1.0.1
#
DISCID=2411fd13
DTITLE=Various Artist - Byron Bay Bluesfest 2014 - Disc 2
DYEAR=2014
DGENRE=Blues
TTITLE0=Cold Chisel - Khe Sanh
TTITLE1=Bob Dylan - Hurricane
TTITLE2=ZZ Top - La Grange
TTITLE3=James Brown - Talkin' Loud And Saying Nothin'
TTITLE4=Grace Jones - I've Seen That Face Before (Libertango)
TTITLE5=The Steve Miller Band - Fly Like An Eagle
TTITLE6=BB King - How Blue Can You Get
TTITLE7=Parliament - Give Up The Funk (Tear The Roof Off The Sucker)
TTITLE8=Earth, Wind And Fire - September
TTITLE9=Santana - Oye Como Va
TTITLE10=Gipsy Kings - Bamboleo
TTITLE11=Toots And The Maytals - 54-46 Was My Number
TTITLE12=Jimmy Cliff - You Can Get It If You Really Want It
TTITLE13=Mental As Anything - The Nips Are Getting Bigger
TTITLE14=Bo Diddley - I'm A Man
TTITLE15=Blind Boys Of Alabama - Way Down In The Hole
TTITLE16=Trombone Shorty - Hurricane Season
TTITLE17=Neil Finn - Sinner
TTITLE18=Rufus Wainwright - Jericho
EXTD=
EXTT0=
EXTT1=
EXTT2=
EXTT3=
EXTT4=
EXTT5=
EXTT6=
EXTT7=
EXTT8=
EXTT9=
EXTT10=
EXTT11=
EXTT12=
EXTT13=
EXTT14=
EXTT15=
EXTT16=
EXTT17=
EXTT18=
PLAYORDER=
